<svg id="_0" data-name="0" xmlns="http://www.w3.org/2000/svg" viewBox="0 0 152.85 99.94"><defs><style>.cls-1{fill:#2776bb;}.cls-2{fill:none;stroke:#2776bb;stroke-miterlimit:10;}</style></defs><g id="LWPOLYLINE"><path class="cls-1" d="M166.3,82.45a29.91,29.91,0,0,1-52.92,19.11,29.91,29.91,0,0,1-46,0A29.91,29.91,0,0,1,14.45,82.45V15.72a2.3,2.3,0,0,1,2.3-2.3H26a2.3,2.3,0,0,1,2.3,2.3V57.24a29.92,29.92,0,0,1,39.12,6.09,29.91,29.91,0,0,1,39.11-6.09V15.72a2.3,2.3,0,0,1,2.3-2.3H118a2.3,2.3,0,0,1,2.3,2.3V57.24a29.92,29.92,0,0,1,46,25.21Zm-13.8,0a16.11,16.11,0,1,0-16.11,16.1A16.11,16.11,0,0,0,152.5,82.45Zm-46,0a16.11,16.11,0,1,0-16.1,16.1A16.1,16.1,0,0,0,106.48,82.45Zm-46,0a16.11,16.11,0,1,0-16.11,16.1A16.11,16.11,0,0,0,60.47,82.45Z" transform="translate(-13.95 -12.92)"/><path class="cls-2" d="M136.39,52.54a29.94,29.94,0,0,0-16.11,4.7V15.72a2.3,2.3,0,0,0-2.3-2.3h-9.2a2.3,2.3,0,0,0-2.3,2.3V57.24a29.91,29.91,0,0,0-39.11,6.09,29.92,29.92,0,0,0-39.12-6.09V15.72a2.3,2.3,0,0,0-2.3-2.3h-9.2a2.3,2.3,0,0,0-2.3,2.3V82.45a29.91,29.91,0,0,0,52.92,19.11,29.91,29.91,0,0,0,46,0,29.91,29.91,0,1,0,23-49Z" transform="translate(-13.95 -12.92)"/><path class="cls-2" d="M60.47,82.45A16.11,16.11,0,1,1,44.36,66.34,16.11,16.11,0,0,1,60.47,82.45Z" transform="translate(-13.95 -12.92)"/><path class="cls-2" d="M106.48,82.45a16.11,16.11,0,1,1-16.1-16.11A16.1,16.1,0,0,1,106.48,82.45Z" transform="translate(-13.95 -12.92)"/><path class="cls-2" d="M152.5,82.45a16.11,16.11,0,1,1-16.11-16.11A16.11,16.11,0,0,1,152.5,82.45Z" transform="translate(-13.95 -12.92)"/></g></svg>