<?xml version="1.0" encoding="utf-8"?>
<!-- Generator: Adobe Illustrator 25.4.1, SVG Export Plug-In . SVG Version: 6.00 Build 0)  -->
<svg version="1.1" id="_0" xmlns="http://www.w3.org/2000/svg" xmlns:xlink="http://www.w3.org/1999/xlink" x="0px" y="0px"
	 viewBox="0 0 1024 1024" style="enable-background:new 0 0 1024 1024;" xml:space="preserve">
<style type="text/css">
	.st0{fill:#2776BB;}
	.st1{fill:none;stroke:#2776BB;stroke-width:11.6508;stroke-miterlimit:58.2542;}
</style>
<g transform="translate(23.575, 50.03)">
	<g id="LWPOLYLINE">
		<path class="st0" d="M982.4,603.1c0,107.7-87.3,195.1-195.1,195.1c-58,0-112.9-25.8-150-70.5c-68.8,82.8-191.8,94.1-274.6,25.3
			c-9.2-7.7-17.6-16.1-25.3-25.3c-68.8,82.9-191.7,94.3-274.6,25.6C18.1,716.3-7.8,661.2-7.8,603.1V167.9c0-8.3,6.8-15,15-15l0,0
			h60.3c8.3,0,15,6.8,15,15v270.7c82.8-52.9,192.2-35.9,255.1,39.7c62.9-75.7,172.1-92.7,255-39.7V167.9c0-8.3,6.8-15,15-15l0,0
			h59.8c8.3,0,15,6.8,15,15l0,0v270.7c90.8-58,211.5-31.2,269.4,59.7C971.8,529.7,982.4,566,982.4,603.1z M892.4,603.1
			c0-58.1-47-105.1-105-105.1c-58.1,0-105.1,47-105.1,105c0,58.1,47,105.1,105,105.1c0,0,0,0,0.1,0
			C845.4,708.1,892.4,661.1,892.4,603.1z M592.5,603.1c0-58.1-47-105.1-105-105.1c-58.1,0-105.1,47-105.1,105
			c0,58.1,47,105.1,105,105.1h0.1c58-0.1,104.9-47.1,104.9-105H592.5z M292.5,603.1c0-58.1-47-105.1-105-105.1
			C129.5,498,82.4,545,82.4,602.9c0,58.1,47,105.1,105,105.2c0,0,0,0,0.1,0c58-0.1,104.9-47.1,104.9-105H292.5z"/>
		<path class="st1" d="M787.3,408.1c-37.2,0-73.6,10.6-105.1,30.6V167.9c0-8.3-6.8-15-15-15l0,0h-60c-8.3,0-15,6.8-15,15l0,0v270.7
			c-82.8-52.9-192.2-35.9-255,39.7c-62.9-75.7-172.2-92.7-255.1-39.7V167.9c0-8.3-6.8-15-15-15H7.2c-8.3,0-15,6.8-15,15l0,0V603
			c0,107.7,87.3,195.1,195.1,195.1c58,0,112.9-25.8,150-70.5c68.8,82.8,191.8,94.1,274.6,25.3c9.2-7.7,17.6-16.1,25.3-25.3
			C706,810.6,829,822.1,912,753.4s94.4-191.7,25.7-274.6c-37.1-44.7-92.2-70.6-150.3-70.6V408.1z"/>
		<path class="st1" d="M292.3,603.1c0,58-47.1,105-105.1,105s-105.1-47-105.1-105s47-105.1,105.1-105.1S292.3,545.1,292.3,603.1
			L292.3,603.1z"/>
		<path class="st1" d="M592.4,603.1c0,58-47.1,105-105.1,105s-105.1-47-105.1-105.1c0-58.1,47-105.1,105.1-105.1c0,0,0,0,0.1,0
			C545.4,498.1,592.4,545.1,592.4,603.1C592.4,603,592.4,603,592.4,603.1z"/>
		<path class="st1" d="M892.4,603.1c0,58.1-47,105.1-105.1,105.1s-105.1-47-105.1-105.1s47-105.1,105.1-105.1
			S892.4,545.1,892.4,603.1L892.4,603.1z"/>
	</g>
</g>
</svg>
